# xmcd
#
# Track frame offsets:
#	150
#	21147
#	38140
#	56197
#	76450
#	97090
#	115002
#	127032
#	142987
#	171062
#	189595
#	215640
#	234487
#	257060
#	288622
#
# Disc length: 4143
#
# Revision: 1
# Processed by: cddbd v1.5.1PL0 Copyright (c) Steve Scherf et al.
# Submitted via: dBpowerAMP V4.0
# Normalized: r0:TDELIM( - ),TSWAP
#
DISCID=dd102d0f
DTITLE=Various Artist - Midnite Hour
DYEAR=1900
DGENRE=Blues
TTITLE0=Chris Rea - Dancing The Blues Away
TTITLE1=Peter Green Splinter Group - Downsize Blues
TTITLE2=Edgar Winter - You are my song
TTITLE3=Hans and Candy Dulfer - Indian Vibes
TTITLE4=David Knopfler with Chris Rea - A clear day
TTITLE5=Willy DeVille - I´m blue so blue
TTITLE6=Vonda Shepard - Chinatown
TTITLE7=Roger Glover with Guilty Party - No place to go
TTITLE8=Steve Howe - Distant Seas
TTITLE9=Mark King - Bitter Moon
TTITLE10=The Dobbie Brothers - Don´t be afraid
TTITLE11=Robert Palmer - Let´s get it on 99
TTITLE12=Bob Geldof - One for me
TTITLE13=John Mayall Bluesbreakers - Padlock on the blues
TTITLE14=Ezio - Take me away
EXTD=
EXTT0=
EXTT1=
EXTT2=
EXTT3=
EXTT4=
EXTT5=
EXTT6=
EXTT7=
EXTT8=
EXTT9=
EXTT10=
EXTT11=
EXTT12=
EXTT13=
EXTT14=
PLAYORDER=
